<?xml version="1.0" encoding="utf-8"?>
<!-- Generator: Adobe Illustrator 28.2.0, SVG Export Plug-In . SVG Version: 6.00 Build 0)  -->
<svg version="1.1" id="Capa_1" xmlns="http://www.w3.org/2000/svg" xmlns:xlink="http://www.w3.org/1999/xlink" x="0px" y="0px"
	 viewBox="0 0 936.34 526.69" style="enable-background:new 0 0 936.34 526.69;" xml:space="preserve">
<style type="text/css">
	.st0{fill:#010102;}
	.st1{fill:#FF3700;}
	.st2{fill:#FFBA00;}
	.st3{fill:#FFFFFF;}
	.st4{fill:#004BFF;}
</style>
<rect x="-2.12" y="-0.57" class="st0" width="938.46" height="527.26"/>
<g>
	<g>
		<rect x="119.46" y="189.93" class="st1" width="73.41" height="73.41"/>
		<path class="st2" d="M192.87,263.35c0-25.35,0-55.15,0-73.41c40.55,0,47.23,0,73.41,0C266.28,230.48,233.42,263.35,192.87,263.35z
			"/>
		<rect x="119.46" y="263.35" class="st3" width="73.41" height="73.41"/>
		<polygon class="st4" points="192.87,263.35 266.28,336.76 192.87,336.76 		"/>
	</g>
	<g>
		<path class="st3" d="M405.43,311.19v2.48h-13.41c-25.94-0.15-22.15-0.15-32.35-31.77c-4.81-15.01-18.21-15.01-18.21-15.01h-6.85
			v29.14c0,9.91,4.66,15.16,10.78,15.16v2.48h-42.41v-2.48c6.27,0,10.49-5.25,10.49-15.16v-69.51c0-9.04-4.08-12.97-10.49-12.97
			v-2.48h36.14c29,0,49.4,3.5,49.4,27.83c0,17.78-11.07,24.33-28.41,26.38c9.47-1.02,21.13,5.39,28.27,31.62
			C391.3,307.98,401.64,310.9,405.43,311.19z M364.78,238.91c0-25.36-11.51-25.36-25.65-25.36h-4.52v50.86h4.52
			C353.26,264.41,364.78,264.26,364.78,238.91z"/>
		<path class="st3" d="M431.08,245.09c-20.11,0-34.1,14.72-34.1,35.27c0,17.05,13.11,34.68,32.2,34.68
			c19.53,0,28.12-11.51,30.46-19.09l-2.48-1.31c-3.64,6.85-15.3,9.76-23.17,8.02c-9.76-2.19-17.05-9.62-18.21-23.9h46.34
			C462.12,256.02,452.21,245.09,431.08,245.09z M415.78,276.28c0-13.99,5.98-28.71,14.57-28.71c8.01,0,13.99,10.35,13.99,28.71
			H415.78z"/>
		<path class="st3" d="M599.9,300.32v-53.92h-25.06v2.48c7.43,0.87,6.85,3.79,6.85,12.67v33.37c-3.06,5.83-8.6,9.47-12.68,9.47
			c-8.45,0-12.24-3.93-12.24-12.09v-45.9h-25.01h-26.24v2.48c15.88,0,6.85,22,6.85,22l-8.02,19.82l-14.43-30.89
			c0,0-5.39-10.93,2.77-10.93v-2.48h-34.39v2.48c2.62,0,6.41,0,9.91,7.72c0,0,1.31,2.48,27.1,58.43h2.33L515,271.47
			c9.33-22.44,13.24-22.59,16.76-22.59c6.51,0,6.94,3.93,6.94,12.68v31.18c0,17.49,6.85,22.29,18.36,22.29
			c9.03,0,21.13-7.43,24.63-15.74v12.82c0,0,0.15,3.35,4.08,2.77l21.57-3.79v-2.48C601.21,307.9,599.9,307.32,599.9,300.32z"/>
		<path class="st3" d="M643.27,245.09c-20.11,0-34.1,14.72-34.1,35.27c0,17.05,13.12,34.68,32.2,34.68
			c19.53,0,28.13-11.51,30.46-19.09l-2.48-1.31c-3.64,6.85-15.3,9.76-23.17,8.02c-9.76-2.19-17.05-9.62-18.22-23.9h46.34
			C674.31,256.02,664.4,245.09,643.27,245.09z M627.97,276.28c0-13.99,5.98-28.71,14.57-28.71c8.01,0,13.99,10.35,13.99,28.71
			H627.97z"/>
		<path class="st3" d="M700.26,296.54v-90.41l-25.5,5.39V214c5.83,2.19,7.29,4.37,7.29,9.47v73.07c0,7.43-0.29,13.55-5.83,15.16
			v2.48h29.87v-2.48C700.98,310.38,700.26,304.56,700.26,296.54z"/>
		<path class="st3" d="M750.32,299.59c-1.55,2.34-4.52,5.1-8.74,5.1c-7.29,0-10.78-4.22-10.78-12.38v-43.43h16.76l0.58-2.48h-17.34
			v-22.59l-18.22,3.06v19.53h-7.72l0.44,2.48h7.29v43.86c0,17.63,6.85,22.29,18.36,22.29c9.76,0,18.65-7.28,21.57-14.13l-0.58-6.08
			C751.92,294.83,751.87,297.26,750.32,299.59z"/>
		<path class="st3" d="M814.41,303.61l2.48,1.02c-1.16,4.66-7.87,10.35-17.05,10.35c0,0-12.97,0-14.57-11.8
			c-2.19,6.41-10.78,11.8-21.13,11.8c0,0-16.76,0-16.76-14.86c0-15.88,12.24-17.34,37.74-23.75v-9.04
			c0-15.15-8.45-22.73-18.51-17.49c-4.66,2.33-5.25,4.81-4.23,4.95c2.19,0.29,4.08,1.31,5.39,3.21c2.62,3.79,1.6,8.89-2.19,11.51
			c-3.79,2.48-8.89,1.6-11.51-2.19c-1.75-2.77-1.89-6.26-0.44-8.74c1.46-2.48,3.35-6.41,11.37-10.64c6.56-3.5,14.13-2.91,14.13-2.91
			c19.09,0,24.34,11.95,24.34,29.15v21.71c0,0-0.15,10.2,6.99,10.2C810.47,306.08,813.53,306.08,814.41,303.61z M785.12,278.98
			c-14.28,3.21-19.09,10.05-19.09,17.49c0,0,0,9.62,9.47,9.62c4.95,0,8.3-3.93,9.62-7.43C785.12,298.36,785.12,278.98,785.12,278.98
			z"/>
	</g>
</g>
</svg>
